<svg id="Capa_1" data-name="Capa 1" xmlns="http://www.w3.org/2000/svg" viewBox="0 0 16 16"><defs><style>.cls-1{fill:#3ac8d9;}.cls-2{fill:#fff;}</style></defs><path d="M15.76,8.21l-1.2-1.47h0a1.78,1.78,0,0,0,0-.26V5.86A1.18,1.18,0,0,0,14.26,5L13.11,3.5h0s0,0,0,0h0l0,0h0s0,0,0,0a1,1,0,0,0-.83-.21,1.7,1.7,0,0,0-.91.49,1.12,1.12,0,0,0-.87-.19l-.63.09a1,1,0,0,0-.18.08l-1-1.29A1.89,1.89,0,0,0,7,2a2.67,2.67,0,0,0-1.41.65,1.9,1.9,0,0,0-1.34-.27,2.12,2.12,0,0,0-1.16.52,1.17,1.17,0,0,0-.75-.15L1,2.91A1.21,1.21,0,0,0,0,4.09v.63a1.06,1.06,0,0,0,.37.83h0a0,0,0,0,1,0,0h0s0,0,0,0h0s0,0,0,0h0v0h0a0,0,0,0,1,0,0h0v0h0v0h0s0,0,0,0h0s0,0,0,0h0l0,0h0a0,0,0,0,0,0,0h0v0h0V9.52a1.11,1.11,0,0,0,.24.69s.58.74,1.06,1.38.74.61,1.06.61h.16l2.91-.4L10.33,14a.6.6,0,0,0,.87-.53V11.08l3.4-.46A1.65,1.65,0,0,0,16,9,1.48,1.48,0,0,0,15.76,8.21Z"/><path class="cls-1" d="M13.27,6.67a1.07,1.07,0,0,0-.9,1,.77.77,0,0,0,.9.78,1.07,1.07,0,0,0,.89-1,.76.76,0,0,0-.89-.78"/><path class="cls-2" d="M12.76,4.92V4.29c0-.39-.12-.59-.5-.54-.54.08-1,.83-1.17,1.27h0a2,2,0,0,0,0-.26V4.57c0-.4-.22-.57-.61-.51l-.63.08a.63.63,0,0,0-.59.68V8.41a.46.46,0,0,0,.59.51l.71-.1a.63.63,0,0,0,.61-.68V6.94a1.19,1.19,0,0,1,1-1.33.63.63,0,0,0,.59-.69"/><path class="cls-2" d="M7.1,2.55a1.93,1.93,0,0,0-1.45,1h0a1.14,1.14,0,0,0-1.28-.6,1.69,1.69,0,0,0-1.31,1H3c0-.46-.26-.64-.58-.59L2,3.37H2l-.87.12a.62.62,0,0,0-.52.6v.63a.49.49,0,0,0,.57.51s.06,0,.06,0V9.52a.52.52,0,0,0,.6.52l.71-.1a.64.64,0,0,0,.6-.68V6.06c0-.56,0-1.22.56-1.3.16,0,.28.07.28.3V9.14c0,.39.2.57.6.52l.71-.1a.63.63,0,0,0,.59-.68V5.68c0-.56,0-1.22.56-1.3.17,0,.29.06.29.29V8.76c0,.39.21.57.6.51L8,9.18a.63.63,0,0,0,.6-.69V4.11c0-1.37-.75-1.67-1.53-1.56"/></svg>