<?xml version="1.0" encoding="UTF-8"?>
<svg version="1.1" xmlns="http://www.w3.org/2000/svg" width="67" height="67">
<path d="M0 0 C8.10102722 5.33232171 12.76790071 12.83811087 15.63671875 22.04296875 C17.38848087 31.47988082 15.56565344 40.17772753 10.57421875 48.328125 C5.3168279 55.6640192 -1.97610302 61.28116248 -11 63 C-21.73943869 63.89863616 -31.76491049 62.32212633 -40.44140625 55.5390625 C-43.59313155 52.42683251 -45.84460085 48.8470609 -48 45 C-48.51433594 44.09314453 -48.51433594 44.09314453 -49.0390625 43.16796875 C-52.41493307 35.92719963 -52.11957475 26.7123344 -50.30859375 19.08984375 C-46.58025618 8.99681276 -40.69075813 2.63856411 -31 -2 C-20.92131383 -5.97162802 -9.49698864 -5.15885803 0 0 Z " fill="#030303" transform="translate(51,4)"/>
<path d="M0 0 C0.72614502 0.00008057 1.45229004 0.00016113 2.20043945 0.00024414 C4.4150722 -0.00194063 6.62920561 -0.02008844 8.84375 -0.0390625 C10.245441 -0.04199669 11.64713437 -0.04398131 13.04882812 -0.04492188 C14.33072021 -0.04903076 15.6126123 -0.05313965 16.93334961 -0.05737305 C19.99023438 0.18554688 19.99023438 0.18554688 21.99023438 2.18554688 C21.45452009 5.72126116 21.45452009 5.72126116 19.99023438 7.18554688 C15.59024493 7.40387677 11.18488626 7.37133833 6.7800293 7.37084961 C4.56539655 7.37303438 2.35126314 7.39118219 0.13671875 7.41015625 C-1.26497225 7.41309044 -2.66666562 7.41507506 -4.06835938 7.41601562 C-5.35025146 7.42012451 -6.63214355 7.4242334 -7.95288086 7.4284668 C-11.00976562 7.18554688 -11.00976562 7.18554688 -13.00976562 5.18554688 C-11.91330387 -2.0511007 -6.06437601 0.02128338 0 0 Z " fill="#DDDDDD" transform="translate(29.009765625,29.814453125)"/>
<path d="M0 0 C0.68852554 0.00202423 1.37705109 0.00404846 2.08644104 0.00613403 C3.14261375 0.00469894 3.14261375 0.00469894 4.22012329 0.00323486 C5.71226592 0.00255312 7.2044115 0.00440701 8.69654846 0.00857544 C10.98348147 0.01391591 13.27021737 0.00863443 15.55714417 0.00222778 C17.00441022 0.00288872 18.45167616 0.00417021 19.89894104 0.00613403 C20.58544235 0.0041098 21.27194366 0.00208557 21.97924805 0 C26.82918202 0.0239889 26.82918202 0.0239889 29.05909729 1.13894653 C28.72909729 2.78894653 28.39909729 4.43894653 28.05909729 6.13894653 C17.16909729 6.13894653 6.27909729 6.13894653 -4.94090271 6.13894653 C-5.27090271 4.48894653 -5.60090271 2.83894653 -5.94090271 1.13894653 C-4.26894294 -0.53301323 -2.23199642 0.01109485 0 0 Z " fill="#F3F3F3" transform="translate(21.940902709960938,42.861053466796875)"/>
<path d="M0 0 C10.89 0 21.78 0 33 0 C33.495 1.98 33.495 1.98 34 4 C33 5 33 5 29.76538086 5.11352539 C28.33185874 5.11336631 26.89833088 5.10767407 25.46484375 5.09765625 C24.33496788 5.09553383 24.33496788 5.09553383 23.18226624 5.09336853 C20.7673044 5.08775376 18.35243399 5.07519883 15.9375 5.0625 C14.30403779 5.0574869 12.67057414 5.05292366 11.03710938 5.04882812 C7.02470415 5.03777954 3.01236759 5.02050506 -1 5 C-0.67 3.35 -0.34 1.7 0 0 Z " fill="#FDFDFD" transform="translate(17,18)"/>
</svg>
