<?xml version="1.0" standalone="no"?>
<!DOCTYPE svg PUBLIC "-//W3C//DTD SVG 20010904//EN"
 "http://www.w3.org/TR/2001/REC-SVG-20010904/DTD/svg10.dtd">
<svg version="1.0" xmlns="http://www.w3.org/2000/svg"
 width="338.000000pt" height="309.000000pt" viewBox="0 0 338.000000 309.000000"
 preserveAspectRatio="xMidYMid meet">
<metadata>
Created by potrace 1.16, written by Peter Selinger 2001-2019
</metadata>
<g transform="translate(0.000000,309.000000) scale(0.100000,-0.100000)"
fill="#000000" stroke="none">
<path d="M1113 1873 c-10 -16 -13 -92 -13 -283 l0 -261 25 -24 c19 -20 34 -25
78 -25 74 0 89 14 95 86 3 48 2 57 -9 47 -15 -15 -117 -17 -139 -3 -12 8 -16
50 -20 247 -4 197 -7 234 -17 216z"/>
<path d="M2014 1815 c-7 -19 -14 -51 -14 -70 0 -33 1 -35 16 -21 8 9 19 16 24
16 13 0 32 -39 41 -80 5 -26 7 -16 8 43 1 85 -17 147 -44 147 -9 0 -23 -16
-31 -35z"/>
<path d="M1373 1828 c-30 -39 -17 -90 31 -122 43 -28 52 -24 152 58 23 19 34
36 32 50 -4 30 -51 33 -84 7 -33 -26 -45 -26 -77 -1 -29 23 -41 25 -54 8z"/>
<path d="M1729 1701 c-14 -21 -58 -58 -97 -84 -39 -25 -73 -51 -77 -57 -4 -6
18 -10 64 -10 65 0 71 2 95 30 29 36 49 94 44 131 -3 26 -3 26 -29 -10z"/>
<path d="M1813 1580 c3 -103 6 -121 32 -173 40 -82 80 -111 165 -115 53 -3 76
0 114 17 53 25 99 87 110 149 4 20 10 46 13 57 3 11 -10 -2 -28 -30 -95 -141
-300 -124 -365 30 -9 21 -22 71 -30 110 l-13 70 2 -115z"/>
<path d="M1347 1440 c-4 -14 -7 -46 -7 -71 0 -76 7 -79 218 -79 176 0 181 1
196 22 9 12 16 38 16 58 l0 35 -177 -3 c-97 -2 -186 -1 -199 2 -13 4 -26 18
-31 33 l-9 27 -7 -24z"/>
</g>
</svg>
