<?xml version="1.0" encoding="UTF-8"?>
<svg id="Capa_2" data-name="Capa 2" xmlns="http://www.w3.org/2000/svg" xmlns:xlink="http://www.w3.org/1999/xlink" viewBox="0 0 32.93 33.08">
  <defs>
    <style>
      .cls-1 {
        fill: #fff;
      }
    </style>
  </defs>
  <g id="BANNER">
    <g class="cls-2">
      <path class="cls-1" d="M0,33.08c.13-.47,.25-.91,.37-1.36,.57-2.1,1.15-4.2,1.72-6.3,.07-.25,.15-.49,.2-.74,.02-.07-.02-.16-.06-.23-.8-1.44-1.39-2.97-1.74-4.58-.37-1.71-.45-3.45-.28-5.19,.27-2.67,1.17-5.11,2.64-7.34,1.81-2.72,4.22-4.72,7.22-6.02C11.69,.62,13.37,.2,15.12,.06c4.56-.36,8.59,.95,12.08,3.9,2.23,1.88,3.8,4.22,4.78,6.95,.75,2.11,1.06,4.29,.91,6.52-.18,2.71-.97,5.24-2.41,7.55-2.16,3.46-5.19,5.83-9.07,7.08-1.89,.61-3.84,.87-5.83,.73-2.42-.16-4.71-.79-6.85-1.94-.05-.02-.11-.04-.16-.03-.82,.22-1.64,.44-2.46,.66-1.53,.41-3.07,.81-4.61,1.21-.5,.13-1,.26-1.52,.4Zm3.91-3.85c.34-.09,.65-.17,.96-.25,1.26-.33,2.53-.66,3.79-1,.3-.08,.53-.04,.79,.12,1.67,1.03,3.48,1.65,5.42,1.87,1.51,.18,3.02,.12,4.51-.2,2.56-.55,4.78-1.74,6.65-3.56,2.38-2.32,3.75-5.13,4.09-8.43,.13-1.25,.1-2.51-.12-3.76-.4-2.24-1.27-4.27-2.69-6.05-2.43-3.03-5.56-4.79-9.44-5.19-1.42-.15-2.82-.06-4.21,.23-2.06,.43-3.93,1.31-5.57,2.62-2.88,2.3-4.58,5.28-5.11,8.94-.28,1.93-.1,3.82,.43,5.69,.38,1.34,.98,2.57,1.75,3.73,.09,.13,.09,.24,.05,.38-.42,1.5-.83,3.01-1.24,4.52-.03,.1-.03,.2-.05,.33Z"/>
      <path class="cls-1" d="M11.17,8.82c.14,0,.27,.03,.41,.02,.33,0,.55,.15,.68,.44,.21,.47,.41,.95,.61,1.42,.25,.6,.49,1.2,.76,1.79,.17,.38,.17,.72-.1,1.06-.32,.4-.61,.82-.93,1.22-.28,.34-.23,.59-.05,.89,1.23,2.05,2.89,3.62,5.09,4.59,.22,.1,.44,.19,.67,.28,.25,.1,.48,.04,.65-.17,.41-.49,.82-.97,1.21-1.47,.41-.53,.51-.59,1.12-.32,.9,.4,1.78,.84,2.67,1.27,.2,.1,.4,.2,.59,.3,.18,.1,.27,.25,.27,.48,0,.58-.12,1.13-.32,1.67-.04,.11-.1,.22-.17,.31-.7,.88-1.61,1.42-2.7,1.6-.94,.16-1.87,.04-2.78-.29-1.04-.37-2.08-.75-3.05-1.29-1.14-.63-2.16-1.43-3.1-2.33-1.38-1.32-2.58-2.8-3.56-4.45-.49-.84-.85-1.74-.93-2.72-.1-1.25,.21-2.37,1.01-3.35,.05-.06,.1-.11,.14-.16,.45-.59,1.02-.91,1.79-.8Z"/>
    </g>
  </g>
</svg>